<svg width="45" height="46" viewBox="0 0 45 46" fill="none" xmlns="http://www.w3.org/2000/svg">
<g filter="url(#filter0_d)">
<path d="M39.2808 28.4036C36.8352 33.7824 31.4156 37.4935 25.1404 37.4721C16.5762 37.4428 9.67349 30.4928 9.70276 21.9286C9.7242 15.6534 13.4723 10.2593 18.8677 7.85049C17.9731 9.80105 17.4724 11.9503 17.4646 14.2196C17.4354 22.7641 24.338 29.7338 32.9023 29.7631C35.1716 29.7709 37.3242 29.2849 39.2808 28.4036Z" fill="#999CA0"/>
<circle cx="6.96578" cy="10.5849" r="0.925" transform="rotate(0.195808 6.96578 10.5849)" fill="#999CA0"/>
<circle cx="26.3876" cy="11.576" r="1.85" transform="rotate(0.195808 26.3876 11.576)" fill="#999CA0"/>
<circle cx="34.6855" cy="19.9296" r="0.925" transform="rotate(0.195808 34.6855 19.9296)" fill="#999CA0"/>
<circle cx="5.96378" cy="33.7064" r="1.85" transform="rotate(0.195808 5.96378 33.7064)" fill="#999CA0"/>
</g>
<defs>
<filter id="filter0_d" x="-3.59961" y="0.399902" width="52.4" height="52.4" filterUnits="userSpaceOnUse" color-interpolation-filters="sRGB">
<feFlood flood-opacity="0" result="BackgroundImageFix"/>
<feColorMatrix in="SourceAlpha" type="matrix" values="0 0 0 0 0 0 0 0 0 0 0 0 0 0 0 0 0 0 127 0" result="hardAlpha"/>
<feOffset dy="4"/>
<feGaussianBlur stdDeviation="2"/>
<feComposite in2="hardAlpha" operator="out"/>
<feColorMatrix type="matrix" values="0 0 0 0 0 0 0 0 0 0 0 0 0 0 0 0 0 0 0.25 0"/>
<feBlend mode="normal" in2="BackgroundImageFix" result="effect1_dropShadow"/>
<feBlend mode="normal" in="SourceGraphic" in2="effect1_dropShadow" result="shape"/>
</filter>
</defs>
</svg>
