<svg width="18" height="18" viewBox="0 0 18 18" fill="none" xmlns="http://www.w3.org/2000/svg">
<path d="M16.9639 17.0965C17.13 17.2623 17.399 17.262 17.5648 17.096C17.7306 16.9299 17.7303 16.6609 17.5642 16.4951L16.9639 17.0965ZM13.306 12.845L13.0058 12.5444L13.0058 12.5444L13.306 12.845ZM8.26018 14.5081C4.55094 14.5081 1.54401 11.5012 1.54401 7.79191H0.694274C0.694274 11.9704 4.08164 15.3578 8.26018 15.3578V14.5081ZM1.54401 7.79191C1.54401 4.08268 4.55094 1.07575 8.26018 1.07575V0.226012C4.08164 0.226012 0.694274 3.61338 0.694274 7.79191H1.54401ZM8.26018 1.07575C11.9694 1.07575 14.9763 4.08268 14.9763 7.79191H15.8261C15.8261 3.61338 12.4387 0.226012 8.26018 0.226012V1.07575ZM14.9763 7.79191C14.9763 9.64839 14.2237 11.3283 13.0058 12.5444L13.6062 13.1457C14.9772 11.7767 15.8261 9.88302 15.8261 7.79191H14.9763ZM13.0058 12.5444C11.7902 13.7582 10.1132 14.5081 8.26018 14.5081V15.3578C10.3474 15.3578 12.2378 14.5121 13.6062 13.1457L13.0058 12.5444ZM13.0059 13.1457L16.9639 17.0965L17.5642 16.4951L13.6062 12.5443L13.0059 13.1457Z" fill="black"/>
</svg>
